HIERARCHY
ROOT Hips
{
	OFFSET 0.000000 88.474243 0.000000
	CHANNELS 6 Xposition Yposition Zposition Zrotation Yrotation Xrotation 
	JOINT Hips_Spine
	{
		OFFSET 0.000000 0.000000 0.000000
		CHANNELS 3 Zrotation Yrotation Xrotation
		JOINT Spine
		{
			OFFSET 0.005100 8.711998 -0.691000
			CHANNELS 3 Zrotation Yrotation Xrotation
			JOINT Spine1
			{
				OFFSET -0.009200 8.660301 -1.275000
				CHANNELS 3 Zrotation Yrotation Xrotation
				JOINT Spine2
				{
					OFFSET 0.006300 9.852501 -1.857000
					CHANNELS 3 Zrotation Yrotation Xrotation
					JOINT Spine2_Neck
					{
						OFFSET 0.000000 0.000000 0.000000
						CHANNELS 3 Zrotation Yrotation Xrotation
						JOINT Neck
						{
							OFFSET 0.016300 11.420799 -0.263300
							CHANNELS 3 Zrotation Yrotation Xrotation
							End Site #name: Head
							{
								OFFSET -0.019200 9.262405 2.362500
							}
						}
					}
					JOINT Spine2_LeftShoulder
					{
						OFFSET 0.000000 0.000000 0.000000
						CHANNELS 3 Zrotation Yrotation Xrotation
						JOINT LeftShoulder
						{
							OFFSET 5.616900 6.732201 -0.345700
							CHANNELS 3 Zrotation Yrotation Xrotation
							JOINT LeftArm
							{
								OFFSET 10.664888 -0.183372 -2.440700
								CHANNELS 3 Zrotation Yrotation Xrotation
								JOINT LeftForeArm
								{
									OFFSET 27.459126 0.000000 0.000000
									CHANNELS 3 Zrotation Yrotation Xrotation
									End Site #name: LeftHand
									{
										OFFSET 21.306858 0.000000 0.000000
									}
								}
							}
						}
					}
					JOINT Spine2_RightShoulder
					{
						OFFSET 0.000000 0.000000 0.000000
						CHANNELS 3 Zrotation Yrotation Xrotation
						JOINT RightShoulder
						{
							OFFSET -5.580300 6.737503 -0.344400
							CHANNELS 3 Zrotation Yrotation Xrotation
							JOINT RightArm
							{
								OFFSET -10.679335 -0.188484 -2.383900
								CHANNELS 3 Zrotation Yrotation Xrotation
								JOINT RightForeArm
								{
									OFFSET -27.503529 0.000000 0.000000
									CHANNELS 3 Zrotation Yrotation Xrotation
									End Site #name: RightHand
									{
										OFFSET -21.306808 0.000000 0.000000
									}
								}
							}
						}
					}
				}
			}
		}
	}
	JOINT Hips_LeftUpLeg
	{
		OFFSET 0.000000 0.000000 0.000000
		CHANNELS 3 Zrotation Yrotation Xrotation
		JOINT LeftUpLeg
		{
			OFFSET 6.857700 -6.739601 0.312100
			CHANNELS 3 Zrotation Yrotation Xrotation
			JOINT LeftLeg
			{
				OFFSET -0.367590 -34.731552 -4.572400
				CHANNELS 3 Zrotation Yrotation Xrotation
				End Site #name: LeftFoot
				{
					OFFSET 0.367590 -34.656704 -6.067400
				}
			}
		}
	}
	JOINT Hips_RightUpLeg
	{
		OFFSET 0.000000 0.000000 0.000000
		CHANNELS 3 Zrotation Yrotation Xrotation
		JOINT RightUpLeg
		{
			OFFSET -6.876100 -6.733299 0.301000
			CHANNELS 3 Zrotation Yrotation Xrotation
			JOINT RightLeg
			{
				OFFSET 0.347353 -34.795158 -4.515900
				CHANNELS 3 Zrotation Yrotation Xrotation
				End Site #name: RightFoot
				{
					OFFSET -0.347353 -34.589367 -6.070300
				}
			}
		}
	}
}
MOTION
Frames: 10
Frame Time: 0.041667
0.043760 -0.031595 -0.068777 179.271835 43.873381 -176.689040 -0.000000 -0.000000 0.000000 -3.293075 3.304542 -1.214873 1.341239 -0.442664 1.106632 0.000000 0.000000 0.000000 0.836018 -1.038696 -2.246477 -1.629990 -7.825870 -1.301156 0.714780 -0.113390 -0.743384 -3.682593 -7.500817 1.635779 -78.804763 -8.108103 10.248235 1.038283 -18.011594 4.047282 0.513574 -0.593535 -0.722875 18.075007 13.352933 4.263027 52.472673 10.143918 -9.169976 -5.006586 64.178923 1.479942 0.000000 -0.000000 0.000000 -8.125983 17.915182 -15.768057 -7.657405 -36.472495 1.683765 -0.000000 -0.000000 -0.000000 -9.834506 -29.545704 -7.970021 -14.784544 -10.220787 16.527053 
-0.235219 -0.205073 -0.163109 177.119746 50.664555 -177.701470 -0.000000 -0.000000 0.000000 -4.961210 1.913883 1.841310 1.702508 -0.672494 0.136744 0.000000 0.000000 0.000000 1.547935 -0.735163 -2.097326 -0.579677 -15.360709 -0.148029 0.958388 -0.326131 -1.370636 -2.608421 -9.170084 1.897909 -84.392940 -15.824535 6.829689 -0.974458 -14.878588 2.014020 1.390348 -1.047619 0.311554 22.958044 15.779157 4.427500 51.883019 9.021275 -11.782471 -2.062472 45.644156 3.744890 0.000000 -0.000000 -0.000000 -6.437335 19.054049 -13.567565 -4.368220 -33.635244 -4.064125 -0.000000 -0.000000 -0.000000 -10.145368 -35.494123 -6.806444 -12.082712 -6.136298 15.720087 
-0.303568 -0.282468 -0.227070 176.530324 40.154244 -178.239140 -0.000000 -0.000000 0.000000 -6.161864 -0.718971 2.325690 1.929512 -0.839137 -0.172975 0.000000 0.000000 0.000000 1.996553 -0.970121 -2.186329 -0.882592 -24.866403 -0.220681 1.006721 -0.360542 -1.835287 -1.454515 -8.302719 1.237656 -84.972468 -16.664134 0.906990 -0.809833 -9.301423 2.344657 1.709271 -1.245227 -0.634690 23.884442 17.565976 5.126183 51.572934 11.193310 -7.338158 -1.168548 42.269986 6.801108 -0.000000 -0.000000 -0.000000 -4.988142 20.199316 -12.041107 -3.326150 -32.536426 -6.087603 -0.000000 -0.000000 -0.000000 -10.593686 -39.915908 -4.501379 -11.799194 -5.991964 16.500529 
-0.195049 -0.327426 -0.275237 177.229813 28.619618 -178.461564 -0.000000 -0.000000 0.000000 -6.189599 -1.867964 3.146186 1.531510 -1.256762 -0.550467 0.000000 0.000000 0.000000 1.887113 -1.312450 -1.999906 -1.555108 -29.487931 -0.210709 0.832141 -0.648401 -2.065011 -1.035508 -7.438352 0.891885 -85.761099 -17.373627 0.421930 0.043732 -6.961931 3.110976 1.453153 -1.731407 -0.775311 22.344775 16.955597 4.974360 52.006693 12.600408 -4.756032 1.091742 42.488865 8.480721 -0.000000 0.000000 -0.000000 -4.175595 21.119015 -10.826150 -2.734398 -33.028709 -6.693623 -0.000000 -0.000000 -0.000000 -11.360170 -45.992365 -3.182070 -11.922716 -5.140396 17.313105 
-0.049479 -0.347603 -0.360237 177.183076 18.442226 -178.826506 -0.000000 -0.000000 0.000000 -5.556568 -2.151932 3.420633 1.058508 -1.541760 -0.700458 0.000000 0.000000 0.000000 1.612936 -1.567068 -1.473913 -1.525090 -30.973678 -0.491055 0.498158 -0.965937 -1.980212 -1.001834 -6.753422 0.721305 -86.440841 -18.311799 0.696057 1.302362 -5.555907 4.347869 1.045477 -2.039067 -0.412798 20.062165 15.598352 4.530192 52.583148 13.728894 -2.517229 2.727085 44.440206 9.007713 -0.000000 0.000000 -0.000000 -3.778941 21.852907 -10.227633 -2.461346 -33.501807 -6.982376 -0.000000 -0.000000 -0.000000 -11.829240 -50.709155 -2.577765 -12.543474 -4.418862 18.064203 
0.111694 -0.348220 -0.469669 176.590668 10.057992 -179.117556 -0.000000 -0.000000 0.000000 -4.863189 -1.972765 3.598320 0.574664 -1.681313 -0.461489 0.000000 0.000000 0.000000 1.293279 -1.656750 -0.695432 -1.042811 -30.203666 -1.318714 0.243411 -1.096845 -1.673243 -1.034945 -6.133611 0.631401 -86.759569 -18.678741 1.372297 2.553661 -5.338045 5.442224 0.680900 -2.108691 -0.308032 18.326141 14.387335 4.217492 53.395680 13.553531 0.170250 2.459570 46.284050 8.316736 -0.000000 0.000000 -0.000000 -3.820713 22.037865 -10.098608 -2.319272 -33.884300 -7.288384 -0.000000 -0.000000 -0.000000 -11.824357 -53.916453 -2.646340 -13.267890 -4.313306 18.560853 
0.280343 -0.329599 -0.593849 175.795868 3.809118 -179.298382 -0.000000 -0.000000 0.000000 -4.315468 -1.135965 3.604792 0.239426 -1.658436 0.093461 0.000000 0.000000 0.000000 1.025850 -1.641434 0.145258 -0.586302 -28.575645 -2.241120 0.067199 -1.124185 -1.254331 -1.164215 -5.447261 0.585565 -86.761252 -18.684694 2.141992 3.495120 -5.994245 6.263821 0.401837 -2.080238 -0.117388 17.100157 13.552204 3.884408 54.411329 11.808911 3.229463 2.643267 46.289176 8.132165 -0.000000 0.000000 -0.000000 -4.015140 21.732129 -10.148158 -2.236518 -34.243649 -7.799104 -0.000000 -0.000000 -0.000000 -11.754240 -55.804836 -2.939116 -13.834461 -4.855641 18.663399 
0.450367 -0.301765 -0.726111 175.136080 -1.072479 -179.353847 -0.000000 -0.000000 0.000000 -4.081177 0.138697 3.614535 0.069873 -1.528013 0.732792 0.000000 0.000000 0.000000 0.800601 -1.563142 0.986234 -0.249280 -26.979673 -2.897725 -0.065297 -1.086334 -0.798434 -1.205940 -4.995482 0.582852 -86.287313 -18.891040 2.891750 4.060857 -7.155557 6.497674 0.184767 -2.014640 0.124741 16.470106 13.114158 3.555641 55.001587 10.005480 4.883151 3.259017 44.918351 8.496075 0.000000 0.000000 -0.000000 -4.186364 21.259363 -10.227505 -2.193551 -34.534358 -8.258949 -0.000000 -0.000000 -0.000000 -11.787473 -56.945778 -3.258421 -14.138813 -5.640170 18.476085 
0.618628 -0.269726 -0.854819 174.636934 -5.476249 -179.355337 -0.000000 -0.000000 0.000000 -4.088338 1.160118 3.738864 -0.022977 -1.406904 1.318977 0.000000 0.000000 0.000000 0.564876 -1.489637 1.595324 -0.334541 -25.831933 -3.125812 -0.198139 -1.044413 -0.425508 -1.095465 -4.838770 0.623207 -85.646724 -19.305595 3.681097 4.320516 -9.033722 6.116619 -0.008712 -1.983965 0.363752 16.064726 12.860423 3.268166 55.190461 9.162343 4.977247 4.197045 42.193090 9.080906 0.000000 0.000000 -0.000000 -4.239677 20.773561 -10.066512 -2.128222 -34.800429 -8.709968 -0.000000 -0.000000 -0.000000 -11.904528 -57.496917 -3.471608 -14.106933 -6.458302 18.005228 
0.779230 -0.233090 -0.987590 174.300109 -9.581985 -179.315085 -0.000000 -0.000000 0.000000 -4.376041 1.728449 4.079959 -0.137525 -1.368273 1.696221 0.000000 0.000000 0.000000 0.393049 -1.447677 1.982851 -0.338600 -25.461016 -3.061607 -0.317801 -1.040948 -0.181956 -0.829172 -4.971368 0.708693 -85.046182 -19.808419 4.123092 4.533602 -11.421840 5.398837 -0.202311 -1.983816 0.535658 15.725796 12.565313 2.999645 55.275091 8.611655 4.576874 5.349748 39.393008 9.612149 0.000000 0.000000 -0.000000 -4.163033 20.352891 -9.609667 -2.029688 -35.030254 -9.116048 -0.000000 -0.000000 -0.000000 -12.179098 -57.573969 -3.386668 -13.683710 -7.063028 17.301405 
